<svg xmlns="http://www.w3.org/2000/svg" width="667.622" height="240" viewBox="0 0 667.622 240"><radialGradient id="a" cx="130.474" cy="140.908" r="177.779" gradientUnits="userSpaceOnUse"><stop offset="0" stop-color="#0f9bd8"/><stop offset="1" stop-color="#272154"/></radialGradient><path d="M112.133 151.871c53.337-22.113 91.71-51.773 85.743-66.224-6.006-14.45-54.108-8.213-107.432 13.9C37.094 121.684-1.28 151.292 4.7 165.77c5.98 14.438 54.082 8.213 107.432-13.899zm-58.612-26.515c10.344-4.556 21.098-2.875 24.05 3.799 2.926 6.635-3.067 15.773-13.424 20.316-10.318 4.568-21.086 2.875-24.025-3.799-2.926-6.661 3.054-15.747 13.399-20.316zM0 0v142.326c23.517-19.093 59.997-40.074 102.831-57.868 55.41-22.968 107.105-34.591 137.184-32.601V0H0zm180.128 143.831a502.7 502.7 0 0 1-20.046 9.908l-2.94 1.373a591.886 591.886 0 0 1-21.162 9.266 559.479 559.479 0 0 1-19.097 7.534c-1.554.577-3.093 1.155-4.62 1.706-45.457 16.57-86.462 24.82-112.258 23.435V240h240.006V105.574c-14.065 11.602-32.982 23.922-55.263 35.82a198.918 198.918 0 0 1-4.62 2.437z" fill="url(#a)"/><path d="M281.05 171.919v8.294c0 3.723 2.029 5.52 6.159 5.52 4.135 0 6.162-1.797 6.162-5.52v-8.294h-4.167v7.347c0 1.386 0 3.114-1.96 3.114-2.03 0-2.03-1.728-2.03-3.114v-7.347h-4.164zm25.761 7.209h-.032l-3.928-7.209h-4.232v13.507h3.927v-7.382h.033l4.133 7.382h4.057v-13.507h-3.958v7.209zm9.242 6.298h4.166v-13.507h-4.166v13.507zm14.423-5.313l-2.201-8.194h-4.2l4.03 13.507h4.639l4.23-13.507h-4.262l-2.203 8.194h-.033zm14.521.167h6.4v-3.216h-6.4v-1.695h7.043v-3.45h-11.207v13.507h11.408v-3.488h-7.244v-1.658zm16.455.44h2.199c1.66 0 1.765 1.322 1.862 2.61.069.71.133 1.418.374 2.096h4.128c-.373-.644-.373-2.232-.438-2.91-.168-1.662-.847-2.913-1.996-3.354 1.384-.504 2.028-1.997 2.028-3.384 0-2.571-2.028-3.859-4.401-3.859h-7.921v13.507h4.165v-4.705zm0-5.583h1.928c1.592 0 2.068.47 2.068 1.32 0 1.22-1.052 1.351-1.83 1.351h-2.166v-2.67zm18.415 7.618c-.778 0-1.69-.175-1.995-.985-.104-.237-.139-.539-.139-.883h-4.16c.032 4.304 4.401 4.845 5.925 4.845 3.01 0 6.259-1.117 6.259-4.639 0-2.474-1.895-3.384-3.825-3.894-1.898-.54-3.828-.742-3.893-1.726 0-.743.918-.881 1.49-.881.408 0 .884.068 1.215.34.346.205.576.541.511 1.084h3.927c-.104-3.319-2.709-4.436-5.653-4.436-2.776 0-5.415 1.354-5.415 4.466 0 2.743 2.439 3.323 4.572 3.929 2.298.64 2.905.845 2.905 1.558 0 .984-1.045 1.222-1.724 1.222zm10.294 2.67h4.163V171.92h-4.163v13.507zm16.72 0V175.37h3.796v-3.45h-11.712v3.45h3.752v10.057h4.163zm13.947-17.267l-1.862 2.813h2.577l3.248-2.813h-3.963zm-5.516 17.268h11.41v-3.488h-7.245v-1.658h6.365v-3.216h-6.365v-1.695h7.009v-3.45h-11.174v13.507zm42.822-6.768c0-3.423-1.556-6.739-6.059-6.739h-6.835v13.507h6.023c4.705 0 6.871-2.639 6.871-6.768zm-8.733 3.28v-6.569h1.321c3.014 0 3.284 2.374 3.284 3.219 0 1.253-.404 3.35-2.976 3.35h-1.629zm25.054 0h-7.212v-1.658h6.364v-3.216h-6.364v-1.695h7.006v-3.45H463.08v13.507h11.375v-3.488zm17.91-6.569h3.792v10.057h4.16v-10.057h3.756v-3.45h-11.708v3.45zm20.544 4.91h6.364v-3.215h-6.364v-1.695h7.01v-3.45h-11.171v13.507h11.372v-3.488h-7.211v-1.658zm18.589 2.101c-1.935 0-2.542-1.899-2.542-3.722 0-1.796.607-3.694 2.542-3.694 1.725 0 2.095 1.493 2.203 1.963h4.023c-.334-3.384-2.404-5.313-6.09-5.347-4.164 0-6.839 2.844-6.839 7.078 0 3.992 2.471 7.074 6.838 7.074 3.926 0 6.161-2.88 6.161-5.619h-4.093c-.24 1.283-.785 2.267-2.203 2.267zm19.19-5.789h-3.89v-4.672h-4.134v13.507h4.134v-5.348h3.89v5.348h4.17v-13.507h-4.17v4.672zm17.675 2.537h-.033l-3.928-7.209h-4.266v13.507h3.928v-7.382h.067l4.134 7.382h4.023v-13.507h-3.925v7.209zm15.676-7.548c-4.096 0-6.843 2.976-6.843 7.078 0 4.13 2.747 7.074 6.843 7.074 4.13 0 6.835-2.945 6.835-7.074 0-4.102-2.705-7.078-6.835-7.078zm0 10.8c-1.053 0-2.674-.71-2.674-3.722 0-3.017 1.621-3.694 2.674-3.694 1.048 0 2.707.677 2.707 3.694 0 3.011-1.66 3.722-2.707 3.722zm15.906-10.461h-4.16v13.507h10.121v-3.488h-5.96v-10.019zm17.301-.339c-4.093 0-6.835 2.976-6.835 7.078 0 4.13 2.742 7.074 6.835 7.074 4.094 0 6.843-2.945 6.843-7.074 0-4.102-2.75-7.078-6.843-7.078zm0 10.8c-1.047 0-2.674-.71-2.674-3.722 0-3.017 1.627-3.694 2.674-3.694 1.085 0 2.71.677 2.71 3.694 0 3.011-1.625 3.722-2.71 3.722zm18.86-1.493h1.825c-.203.984-1.183 1.493-2.134 1.493-2.536 0-3.044-2.235-3.044-3.489 0-.912-.104-3.927 2.74-3.927.979 0 1.826.677 1.961 1.661h4c-.613-3.15-2.776-5.045-6.195-5.045-3.054 0-6.673 2.065-6.673 7.21 0 3.86 2.475 6.942 6.437 6.942 1.49 0 2.908-.51 3.853-1.691l.138 1.385h2.61v-7.447h-5.518v2.908zm10.729 4.539h4.128v-13.507h-4.128v13.507zm13.575-3.488v-1.658h6.365v-3.216h-6.365v-1.695h7.006v-3.45h-11.171v13.507h11.377v-3.488h-7.212zm-310.773-53.15h.406v17.875h11.137V47.371h-12.12v52.172c0 20.209-9.037 39.811-29.827 39.811-19.26 0-25.997-9.415-26.573-27.323V47.37h-12.12v64.492c0 23.09 9.82 37.712 34.835 37.712 14.829 0 27.93-7.516 34.262-20.786zm63.34-111.24h-12.155V47.37h-17.3v10.191h17.3v67.942c-.169 16.93 5.384 22.345 21.565 22.345 3.657 0 7.109-.406 10.77-.406V137.05a89.225 89.225 0 0 1-10.366.58c-8.663-.58-9.815-5.182-9.815-13.071V57.562h20.18v-10.19h-20.18V17.547zm54.434 107.956c-.168 16.93 5.387 22.345 21.57 22.345 3.654 0 7.106-.406 10.76-.406V137.05a89.078 89.078 0 0 1-10.357.58c-8.668-.58-9.819-5.182-9.819-13.071V57.562h20.176v-10.19h-20.176V17.547h-12.154V47.37h-17.295v10.191h17.295v67.942zm-186.935 86.252h10.1v27.08h5.583v-27.08h10.145v-4.824h-25.828v4.824zm61.898 11.932v-.088c1.027-.358 5.273-1.922 5.273-8.043 0-5.408-3.575-8.625-10.548-8.625h-15.234v31.905h5.584V225.7h8.219c5.14 0 6.346 2.592 6.346 8.447 0 1.561 0 3.303.85 4.69h5.988c-1.205-1.297-1.742-4.69-1.742-8.4 0-5.05-2.814-6.48-4.736-6.749zm-5.765-2.23h-9.16v-9.967h9.07c2.905 0 5.541.803 5.541 4.87 0 3.351-1.921 5.096-5.45 5.096zm38.121-15.288c-9.562 0-15.283 7.598-15.283 16.713 0 9.118 5.72 16.714 15.283 16.714 9.56 0 15.28-7.596 15.28-16.714 0-9.115-5.72-16.713-15.28-16.713zm0 28.87c-6.84 0-9.698-6.033-9.698-12.157 0-6.12 2.858-12.152 9.698-12.152 6.836 0 9.699 6.031 9.699 12.152 0 6.124-2.863 12.156-9.699 12.156zm39.46-13.809l-8.445-14.299h-6.482l11.976 19.393v12.512h5.586v-12.512l11.934-19.393h-6.256l-8.313 14.3zm31.106 3.44h16.087v-4.556h-16.087v-8.359h17.385v-4.824h-22.97v31.905h23.28v-4.826h-17.695v-9.34zm48.261-3.214c-1.651-.495-8.712-2.326-9.2-2.46-2.282-.627-3.8-1.878-3.8-4.111 0-3.217 3.26-4.155 5.852-4.155 3.843 0 6.612 1.52 6.88 5.63h5.585c0-6.66-5.584-10.19-12.245-10.19-5.762 0-11.66 2.996-11.66 9.386 0 3.305 1.608 6.613 7.061 8.087 4.379 1.205 7.284 1.787 9.517 2.636 1.296.49 2.637 1.476 2.637 3.935 0 2.412-1.835 4.824-6.748 4.824-4.469 0-8.089-1.92-8.089-6.837h-5.587c.136 7.908 6.034 11.395 13.315 11.395 6.35 0 12.694-2.86 12.694-10.01 0-3.307-2.013-6.882-6.212-8.13z" fill="#9d9d9c"/></svg>